<svg width="195" height="83" viewBox="0 0 195 83" fill="none" xmlns="http://www.w3.org/2000/svg">
    <path d="M7.88847 71.3181C5.18358 70.498 3.99964 69.9791 3.99964 68.4313C3.99964 67.0446 5.84266 66.5525 7.42324 66.5525C8.80402 66.5525 10.2892 66.9641 11.2972 67.6231C11.5357 67.7782 11.831 67.8259 12.1054 67.7514C12.3797 67.6768 12.6094 67.4889 12.7376 67.2355L13.1969 66.3169C13.4235 65.8636 13.2744 65.3119 12.8509 65.0346C11.3986 64.0862 9.33784 63.4957 7.47096 63.4957C3.54932 63.4957 0.916002 65.5087 0.916002 68.5029C0.916002 72.3947 4.20243 73.3789 6.84171 74.1721C9.60326 75.0012 10.8111 75.532 10.7962 77.1782C10.7962 78.8304 8.85174 79.4179 7.03555 79.4179C5.29393 79.4179 3.39722 78.4904 2.24608 77.4258C2.01645 77.214 1.7212 77.0917 1.41403 77.1275C1.10686 77.1633 0.829517 77.3393 0.671458 77.6077L0.14062 78.5023C-0.0949763 78.896 -0.0293675 79.4 0.298679 79.7221C2.0075 81.4041 4.58117 82.4508 7.01468 82.4508C11.1212 82.4508 13.8828 80.3215 13.8828 77.1603C13.9096 73.1462 10.5725 72.1323 7.88847 71.3181Z"
          fill="white"/>
    <path d="M21.6037 74.6076L24.5323 68.1182L27.4936 74.6076H21.6037ZM25.9906 64.125C25.8266 63.7701 25.4717 63.5435 25.081 63.5435H23.9955C23.6018 63.5435 23.2469 63.7731 23.0859 64.128L15.4275 81.0134C15.2873 81.3235 15.3142 81.6814 15.4961 81.9677C15.681 82.257 15.9971 82.427 16.3371 82.427H17.4495C17.8401 82.427 18.198 82.1973 18.359 81.8395L20.2677 77.6196H28.8625L30.795 81.8454C30.956 82.2003 31.3109 82.427 31.7016 82.427H32.814C33.1539 82.427 33.47 82.254 33.6549 81.9677C33.8398 81.6844 33.8637 81.3235 33.7235 81.0134L25.9906 64.125Z"
          fill="white"/>
    <path d="M38.7308 63.5435H37.7168C37.1651 63.5435 36.7178 63.9908 36.7178 64.5425V81.4279C36.7178 81.9796 37.1651 82.427 37.7168 82.427H38.7308C39.2825 82.427 39.7298 81.9826 39.7298 81.4279V64.5425C39.7298 63.9908 39.2825 63.5435 38.7308 63.5435Z"
          fill="white"/>
    <path d="M59.7972 63.5435H58.8071C58.2554 63.5435 57.808 63.9908 57.808 64.5425V76.8413L48.3275 63.952C48.1396 63.6955 47.8414 63.5464 47.5253 63.5464H46.3413C45.7896 63.5464 45.3423 63.9938 45.3423 64.5455V81.4309C45.3423 81.9826 45.7896 82.43 46.3413 82.43H47.3553C47.907 82.43 48.3543 81.9856 48.3543 81.4309V69.1381L57.808 82.0244C57.9959 82.2809 58.2941 82.43 58.6132 82.43H59.7972C60.3489 82.43 60.7962 81.9856 60.7962 81.4309V64.5455C60.7962 63.9908 60.3489 63.5435 59.7972 63.5435Z"
          fill="white"/>
    <path d="M77.2166 63.5435H64.7986C64.2468 63.5435 63.8025 63.9908 63.8025 64.5425V65.5356C63.8025 66.0843 64.2498 66.5317 64.7986 66.5317H69.5015V81.4279C69.5015 81.9796 69.9489 82.427 70.5006 82.427H71.5116C72.0663 82.427 72.5106 81.9826 72.5106 81.4279V66.5317H77.2136C77.7653 66.5317 78.2127 66.0843 78.2127 65.5356V64.5425C78.2156 63.9908 77.7683 63.5435 77.2166 63.5435Z"
          fill="white"/>
    <path d="M84.6424 72.7466H79.2534C78.7017 72.7466 78.2544 73.1939 78.2544 73.7456V74.5687C78.2544 75.1204 78.7017 75.5678 79.2534 75.5678H84.6424C85.1941 75.5678 85.6384 75.1204 85.6384 74.5687V73.7456C85.6414 73.1939 85.1941 72.7466 84.6424 72.7466Z"
          fill="white"/>
    <path d="M105.625 72.1442H104.707C104.701 72.1442 104.695 72.1472 104.689 72.1472H101.692C101.137 72.1472 100.693 72.5946 100.693 73.1463V74.1602C100.693 74.7119 101.137 75.1593 101.692 75.1593H103.711V78.2459C102.533 79.0541 101.122 79.4925 99.6846 79.4925C95.9598 79.4925 92.9269 76.5699 92.9269 72.9763C92.9269 69.3976 95.9598 66.4869 99.6846 66.4869C101.414 66.4869 103.117 67.1251 104.358 68.2375C104.561 68.4194 104.832 68.5119 105.103 68.488C105.378 68.4671 105.628 68.3329 105.801 68.1182L106.404 67.3697C106.741 66.9522 106.687 66.3438 106.284 65.9919C104.468 64.3994 102.124 63.5226 99.6846 63.5226C94.2987 63.5226 89.9148 67.7633 89.9148 72.9763C89.9148 78.2041 94.2748 82.4538 99.6369 82.4538C102.061 82.4538 104.48 81.5651 106.281 80.0144C106.502 79.8265 106.627 79.5491 106.627 79.2569V73.1463C106.624 72.5916 106.177 72.1442 105.625 72.1442Z"
          fill="white"/>
    <path d="M119.782 79.4627C116.084 79.4627 113.072 76.552 113.072 72.9733C113.072 69.4066 116.084 66.5079 119.782 66.5079C123.48 66.5079 126.489 69.4096 126.489 72.9733C126.489 76.552 123.48 79.4627 119.782 79.4627ZM119.782 63.5197C114.408 63.5197 110.039 67.7604 110.039 72.9733C110.039 78.2012 114.408 82.4509 119.782 82.4509C125.153 82.4509 129.528 78.2012 129.528 72.9733C129.525 67.7574 125.153 63.5197 119.782 63.5197Z"
          fill="white"/>
    <path d="M135.937 74.1871H140.81C142.349 74.1871 144.931 74.5211 144.931 76.7637C144.931 78.9735 142.692 79.4388 140.81 79.4388H135.937V74.1871ZM140.807 71.2018H135.934V66.5317H140.807C142.301 66.5317 144.084 66.9343 144.084 68.8429C144.087 70.4086 142.984 71.2018 140.807 71.2018ZM145.516 72.4514C146.533 71.5776 147.096 70.2893 147.096 68.7206C147.096 65.5266 144.696 63.5435 140.831 63.5435H133.921C133.369 63.5435 132.925 63.9908 132.925 64.5425V81.4309C132.925 81.9826 133.372 82.43 133.921 82.43H140.878C145.301 82.43 147.94 80.3603 147.94 76.892C147.943 74.9267 147.055 73.364 145.516 72.4514Z"
          fill="white"/>
    <path d="M155.81 74.6076L158.739 68.1182L161.7 74.6076H155.81ZM160.197 64.125C160.033 63.7701 159.681 63.5435 159.288 63.5435H158.199C157.805 63.5435 157.451 63.7731 157.29 64.128L149.631 81.0134C149.491 81.3235 149.518 81.6814 149.703 81.9677C149.888 82.257 150.204 82.427 150.541 82.427H151.653C152.047 82.427 152.402 82.1973 152.563 81.8395L154.471 77.6196H163.063L164.996 81.8454C165.157 82.2003 165.512 82.427 165.902 82.427H167.012C167.352 82.427 167.668 82.254 167.853 81.9677C168.035 81.6844 168.061 81.3235 167.921 81.0134L160.197 64.125Z"
          fill="white"/>
    <path d="M172.937 63.5435H171.92C171.369 63.5435 170.921 63.9908 170.921 64.5425V81.4279C170.921 81.9796 171.369 82.427 171.92 82.427H172.937C173.489 82.427 173.936 81.9826 173.936 81.4279V64.5425C173.939 63.9908 173.489 63.5435 172.937 63.5435Z"
          fill="white"/>
    <path d="M194.004 63.5435H193.014C192.462 63.5435 192.018 63.9908 192.018 64.5425V76.8412L182.537 63.949C182.349 63.6926 182.051 63.5435 181.732 63.5435H180.548C179.996 63.5435 179.549 63.9908 179.549 64.5425V81.4279C179.549 81.9796 179.996 82.427 180.548 82.427H181.562C182.114 82.427 182.561 81.9826 182.561 81.4279V69.1352L192.018 82.0214C192.206 82.2779 192.504 82.427 192.82 82.427H194.004C194.556 82.427 195 81.9826 195 81.4279V64.5425C195.003 63.9908 194.556 63.5435 194.004 63.5435Z"
          fill="white"/>
    <mask id="mask0_55_707" style="mask-type:alpha" maskUnits="userSpaceOnUse" x="24" y="0" width="147" height="57">
        <path d="M106.562 34.7619L109.622 37.0463V53.6484H106.562V34.7619ZM118.509 1.45032L103.958 16.2154C103.675 16.5017 103.52 16.8804 103.52 17.283V28.6901L97.5613 24.2406C97.0216 23.838 96.2253 23.8499 95.7004 24.2734L82.1551 35.1347C81.7943 35.424 81.5855 35.8564 81.5855 36.3216V53.6484H78.5138V44.0993C78.5138 40.7443 76.2055 37.1805 71.926 37.1805C67.6495 37.1805 65.3413 40.7622 65.3413 44.1321V53.6484H62.2368V47.171C62.2368 44.5466 60.4295 41.7553 57.0805 41.7553C53.7314 41.7553 51.9242 44.5496 51.9242 47.177V53.6514L48.8316 53.6544L48.8286 53.3651C48.8256 52.0589 48.8197 50.3888 48.8197 49.7148C48.8197 47.4841 46.7142 45.5308 44.3135 45.5308C41.9128 45.5308 39.8073 47.4782 39.8073 49.697V53.6514L26.2412 53.6484C25.4031 53.6484 24.7202 54.3313 24.7202 55.1693C24.7202 55.5749 24.8783 55.9596 25.1646 56.2459C25.4509 56.5322 25.8356 56.6903 26.2412 56.6903L41.3283 56.6933C41.7339 56.6933 42.1156 56.5352 42.4049 56.2489C42.6942 55.9626 42.8522 55.5809 42.8522 55.1723V49.9743C42.8522 49.4107 43.4666 48.5756 44.3165 48.5756C45.1545 48.5756 45.7808 49.3391 45.7808 50.022C45.7808 50.4127 45.7957 55.1843 45.7957 55.1843C45.7987 56.0193 46.4816 56.6992 47.3166 56.6992L53.4481 56.6963C54.2861 56.6963 54.969 56.0133 54.969 55.1753V47.177C54.969 46.3539 55.4104 44.8001 57.0834 44.8001C58.7565 44.8001 59.1979 46.3509 59.1979 47.171V55.1693C59.1979 56.0074 59.8808 56.6903 60.7188 56.6903L66.8682 56.6933C67.2678 56.6933 67.6614 56.5293 67.9448 56.2489C68.2281 55.9656 68.3891 55.5749 68.3891 55.1723V44.1321C68.3891 42.7811 69.1287 40.2254 71.932 40.2254C74.5325 40.2254 75.4749 42.5426 75.4749 44.0993V55.1723C75.4749 56.0103 76.1578 56.6933 76.9958 56.6933H83.1094C83.9474 56.6933 84.6304 56.0103 84.6304 55.1723V37.0523L84.7407 36.9658L96.6905 27.3868L103.526 32.4924V55.1723C103.526 56.0103 104.209 56.6933 105.047 56.6933H111.148C111.986 56.6933 112.669 56.0103 112.669 55.1723V36.2858C112.669 35.8087 112.44 35.3524 112.058 35.0661L106.568 30.9655V17.9093L106.651 17.8258L118.076 6.23382V55.1723C118.076 56.0103 118.759 56.6933 119.597 56.6933H125.758C126.596 56.6933 127.279 56.0103 127.279 55.1723V23.322H129.546L129.629 23.4026L137.416 30.7568V55.1723C137.416 56.0103 138.099 56.6933 138.937 56.6933H145.122C145.96 56.6933 146.643 56.0103 146.643 55.1723V47.7794L155.154 56.1982C155.441 56.4815 155.822 56.6396 156.225 56.6396H168.876C169.714 56.6396 170.397 55.9567 170.397 55.1187C170.397 54.2806 169.714 53.5977 168.876 53.5977H156.851L156.765 53.5142L146.19 43.0555C145.757 42.629 145.095 42.4978 144.535 42.7334C143.965 42.972 143.598 43.5207 143.598 44.1381V53.6544H140.455V30.1037C140.455 29.6861 140.282 29.2835 139.978 28.9972L131.192 20.7007C130.909 20.4323 130.536 20.2861 130.148 20.2861H125.755C124.917 20.2861 124.234 20.9691 124.234 21.8071V53.6544H121.115V2.51796C121.115 1.89765 120.745 1.34594 120.17 1.11034C119.988 1.03579 119.794 1 119.603 1C119.197 1.00298 118.795 1.15806 118.509 1.45032Z"
              fill="black" stroke="white" stroke-width="0.298224" stroke-miterlimit="10"/>
    </mask>
    <g mask="url(#mask0_55_707)">
        <path d="M106.562 34.7619L109.622 37.0463V53.6484H106.562V34.7619ZM118.509 1.45032L103.958 16.2154C103.675 16.5017 103.52 16.8804 103.52 17.283V28.6901L97.5613 24.2406C97.0216 23.838 96.2253 23.8499 95.7004 24.2734L82.1551 35.1347C81.7943 35.424 81.5855 35.8564 81.5855 36.3216V53.6484H78.5138V44.0993C78.5138 40.7443 76.2055 37.1805 71.926 37.1805C67.6495 37.1805 65.3413 40.7622 65.3413 44.1321V53.6484H62.2368V47.171C62.2368 44.5466 60.4295 41.7553 57.0805 41.7553C53.7314 41.7553 51.9242 44.5496 51.9242 47.177V53.6514L48.8316 53.6544L48.8286 53.3651C48.8256 52.0589 48.8197 50.3888 48.8197 49.7148C48.8197 47.4841 46.7142 45.5308 44.3135 45.5308C41.9128 45.5308 39.8073 47.4782 39.8073 49.697V53.6514L26.2412 53.6484C25.4031 53.6484 24.7202 54.3313 24.7202 55.1693C24.7202 55.5749 24.8783 55.9596 25.1646 56.2459C25.4509 56.5322 25.8356 56.6903 26.2412 56.6903L41.3283 56.6933C41.7339 56.6933 42.1156 56.5352 42.4049 56.2489C42.6942 55.9626 42.8522 55.5809 42.8522 55.1723V49.9743C42.8522 49.4107 43.4666 48.5756 44.3165 48.5756C45.1545 48.5756 45.7808 49.3391 45.7808 50.022C45.7808 50.4127 45.7957 55.1843 45.7957 55.1843C45.7987 56.0193 46.4816 56.6992 47.3166 56.6992L53.4481 56.6963C54.2861 56.6963 54.969 56.0133 54.969 55.1753V47.177C54.969 46.3539 55.4104 44.8001 57.0834 44.8001C58.7565 44.8001 59.1979 46.3509 59.1979 47.171V55.1693C59.1979 56.0074 59.8808 56.6903 60.7188 56.6903L66.8682 56.6933C67.2678 56.6933 67.6614 56.5293 67.9448 56.2489C68.2281 55.9656 68.3891 55.5749 68.3891 55.1723V44.1321C68.3891 42.7811 69.1287 40.2254 71.932 40.2254C74.5325 40.2254 75.4749 42.5426 75.4749 44.0993V55.1723C75.4749 56.0103 76.1578 56.6933 76.9958 56.6933H83.1094C83.9474 56.6933 84.6304 56.0103 84.6304 55.1723V37.0523L84.7407 36.9658L96.6905 27.3868L103.526 32.4924V55.1723C103.526 56.0103 104.209 56.6933 105.047 56.6933H111.148C111.986 56.6933 112.669 56.0103 112.669 55.1723V36.2858C112.669 35.8087 112.44 35.3524 112.058 35.0661L106.568 30.9655V17.9093L106.651 17.8258L118.076 6.23382V55.1723C118.076 56.0103 118.759 56.6933 119.597 56.6933H125.758C126.596 56.6933 127.279 56.0103 127.279 55.1723V23.322H129.546L129.629 23.4026L137.416 30.7568V55.1723C137.416 56.0103 138.099 56.6933 138.937 56.6933H145.122C145.96 56.6933 146.643 56.0103 146.643 55.1723V47.7794L155.154 56.1982C155.441 56.4815 155.822 56.6396 156.225 56.6396H168.876C169.714 56.6396 170.397 55.9567 170.397 55.1187C170.397 54.2806 169.714 53.5977 168.876 53.5977H156.851L156.765 53.5142L146.19 43.0555C145.757 42.629 145.095 42.4978 144.535 42.7334C143.965 42.972 143.598 43.5207 143.598 44.1381V53.6544H140.455V30.1037C140.455 29.6861 140.282 29.2835 139.978 28.9972L131.192 20.7007C130.909 20.4323 130.536 20.2861 130.148 20.2861H125.755C124.917 20.2861 124.234 20.9691 124.234 21.8071V53.6544H121.115V2.51796C121.115 1.89765 120.745 1.34594 120.17 1.11034C119.988 1.03579 119.794 1 119.603 1C119.197 1.00298 118.795 1.15806 118.509 1.45032Z"
              fill="white" stroke="white" stroke-width="0.298224" stroke-miterlimit="10"/>
    </g>
</svg>
